<svg width="45" height="46" viewBox="0 0 45 46" fill="none" xmlns="http://www.w3.org/2000/svg">
<path d="M39.1875 3.79541H5.8125C5.26549 3.79541 4.74089 4.01271 4.35409 4.3995C3.9673 4.7863 3.75 5.3109 3.75 5.85791V39.2329C3.75 39.7799 3.9673 40.3045 4.35409 40.6913C4.74089 41.0781 5.26549 41.2954 5.8125 41.2954H23.775V26.7642H18.9V21.1392H23.775V16.9204C23.674 15.93 23.7909 14.9294 24.1176 13.9889C24.4442 13.0484 24.9727 12.1908 25.6659 11.4762C26.3591 10.7616 27.2002 10.2072 28.1303 9.85211C29.0604 9.49698 30.0569 9.34963 31.05 9.42041C32.5094 9.41143 33.968 9.48655 35.4187 9.64541V14.7079H32.4375C30.075 14.7079 29.625 15.8329 29.625 17.4642V21.0829H35.25L34.5187 26.7079H29.625V41.2954H39.1875C39.4584 41.2954 39.7266 41.2421 39.9768 41.1384C40.227 41.0348 40.4544 40.8828 40.6459 40.6913C40.8374 40.4998 40.9893 40.2724 41.093 40.0222C41.1967 39.772 41.25 39.5038 41.25 39.2329V5.85791C41.25 5.58706 41.1967 5.31886 41.093 5.06863C40.9893 4.81839 40.8374 4.59102 40.6459 4.3995C40.4544 4.20798 40.227 4.05606 39.9768 3.95241C39.7266 3.84876 39.4584 3.79541 39.1875 3.79541Z" fill="white"/>
</svg>
