<svg width="59" height="59" viewBox="0 0 59 59" fill="none" xmlns="http://www.w3.org/2000/svg">
<path d="M29.3841 0.973633C23.6859 0.973633 18.1158 2.66332 13.378 5.82903C8.64016 8.99473 4.94748 13.4943 2.76691 18.7586C0.586336 24.023 0.0157977 29.8158 1.12745 35.4044C2.23909 40.993 4.983 46.1265 9.01217 50.1557C13.0413 54.1849 18.1748 56.9288 23.7635 58.0404C29.3521 59.1521 35.1449 58.5815 40.4092 56.401C45.6736 54.2204 50.1731 50.5277 53.3388 45.7899C56.5045 41.0521 58.1942 35.4819 58.1942 29.7838C58.1862 22.1454 55.1482 14.8221 49.747 9.42085C44.3458 4.01964 37.0225 0.981699 29.3841 0.973633ZM29.3841 54.1617C24.5626 54.1617 19.8494 52.7319 15.8404 50.0533C11.8315 47.3746 8.70696 43.5673 6.86185 39.1128C5.01675 34.6584 4.53399 29.7568 5.47461 25.0279C6.41524 20.2991 8.73701 15.9554 12.1463 12.5461C15.5556 9.13677 19.8993 6.81501 24.6282 5.87438C29.357 4.93376 34.2586 5.41652 38.7131 7.26162C43.1675 9.10672 46.9748 12.2313 49.6535 16.2402C52.3322 20.2491 53.7619 24.9623 53.7619 29.7838C53.7546 36.247 51.1838 42.4433 46.6137 47.0135C42.0436 51.5836 35.8472 54.1543 29.3841 54.1617ZM33.8164 43.0808C33.8164 43.6686 33.5829 44.2323 33.1673 44.6479C32.7517 45.0635 32.188 45.297 31.6002 45.297C30.4247 45.297 29.2973 44.83 28.4661 43.9988C27.6349 43.1676 27.1679 42.0402 27.1679 40.8647V29.7838C26.5801 29.7838 26.0164 29.5503 25.6008 29.1347C25.1852 28.7191 24.9517 28.1554 24.9517 27.5677C24.9517 26.9799 25.1852 26.4162 25.6008 26.0006C26.0164 25.585 26.5801 25.3515 27.1679 25.3515C28.3434 25.3515 29.4708 25.8185 30.302 26.6497C31.1332 27.4809 31.6002 28.6083 31.6002 29.7838V40.8647C32.188 40.8647 32.7517 41.0981 33.1673 41.5138C33.5829 41.9294 33.8164 42.4931 33.8164 43.0808ZM24.9517 17.5949C24.9517 16.9374 25.1467 16.2947 25.512 15.748C25.8772 15.2014 26.3964 14.7753 27.0038 14.5237C27.6113 14.2721 28.2797 14.2062 28.9245 14.3345C29.5693 14.4628 30.1617 14.7794 30.6266 15.2443C31.0915 15.7092 31.4081 16.3015 31.5363 16.9464C31.6646 17.5912 31.5988 18.2596 31.3472 18.867C31.0956 19.4745 30.6695 19.9936 30.1228 20.3589C29.5762 20.7242 28.9334 20.9191 28.276 20.9191C27.3943 20.9191 26.5488 20.5689 25.9254 19.9455C25.3019 19.3221 24.9517 18.4765 24.9517 17.5949Z" fill="white"/>
</svg>
