<svg width="24" height="25" viewBox="0 0 24 25" fill="none" xmlns="http://www.w3.org/2000/svg">
<path d="M10.5 20.75C10.5 20.9489 10.421 21.1397 10.2803 21.2803C10.1397 21.421 9.94891 21.5 9.75 21.5H4.5C4.10218 21.5 3.72064 21.342 3.43934 21.0607C3.15804 20.7794 3 20.3978 3 20V5C3 4.60218 3.15804 4.22064 3.43934 3.93934C3.72064 3.65804 4.10218 3.5 4.5 3.5H9.75C9.94891 3.5 10.1397 3.57902 10.2803 3.71967C10.421 3.86032 10.5 4.05109 10.5 4.25C10.5 4.44891 10.421 4.63968 10.2803 4.78033C10.1397 4.92098 9.94891 5 9.75 5H4.5V20H9.75C9.94891 20 10.1397 20.079 10.2803 20.2197C10.421 20.3603 10.5 20.5511 10.5 20.75ZM20.7806 11.9694L17.0306 8.21937C16.8899 8.07864 16.699 7.99958 16.5 7.99958C16.301 7.99958 16.1101 8.07864 15.9694 8.21937C15.8286 8.36011 15.7496 8.55098 15.7496 8.75C15.7496 8.94902 15.8286 9.13989 15.9694 9.28063L18.4397 11.75H9.75C9.55109 11.75 9.36032 11.829 9.21967 11.9697C9.07902 12.1103 9 12.3011 9 12.5C9 12.6989 9.07902 12.8897 9.21967 13.0303C9.36032 13.171 9.55109 13.25 9.75 13.25H18.4397L15.9694 15.7194C15.8286 15.8601 15.7496 16.051 15.7496 16.25C15.7496 16.449 15.8286 16.6399 15.9694 16.7806C16.1101 16.9214 16.301 17.0004 16.5 17.0004C16.699 17.0004 16.8899 16.9214 17.0306 16.7806L20.7806 13.0306C20.8504 12.961 20.9057 12.8783 20.9434 12.7872C20.9812 12.6962 21.0006 12.5986 21.0006 12.5C21.0006 12.4014 20.9812 12.3038 20.9434 12.2128C20.9057 12.1217 20.8504 12.039 20.7806 11.9694Z" fill="white"/>
</svg>
