<svg width="45" height="46" viewBox="0 0 45 46" fill="none" xmlns="http://www.w3.org/2000/svg">
<path d="M31.875 16.8211C31.185 17.1211 30.4444 17.3273 29.6662 17.4173C30.4612 16.9486 31.0688 16.2061 31.3575 15.3229C30.5999 15.7644 29.7733 16.075 28.9125 16.2417C28.5504 15.8621 28.1148 15.5603 27.6322 15.3547C27.1496 15.149 26.6302 15.0438 26.1056 15.0454C23.9813 15.0454 22.26 16.7423 22.26 18.8329C22.26 19.1292 22.2938 19.4179 22.3594 19.6954C20.8356 19.6231 19.3437 19.2339 17.9787 18.5527C16.6138 17.8715 15.4058 16.9133 14.4319 15.7392C14.0898 16.315 13.9097 16.9725 13.9106 17.6423C13.9106 18.9548 14.5912 20.1173 15.6225 20.7942C15.0121 20.775 14.4147 20.6125 13.8787 20.3198V20.3667C13.8845 21.2469 14.1952 22.0979 14.758 22.7748C15.3207 23.4517 16.1006 23.9127 16.965 24.0792C16.3975 24.2292 15.8038 24.251 15.2269 24.1429C15.4784 24.9002 15.9594 25.5603 16.6032 26.0318C17.2469 26.5032 18.0215 26.7624 18.8194 26.7736C17.4506 27.8284 15.7699 28.3982 14.0419 28.3936C13.7325 28.3936 13.4269 28.3748 13.125 28.3411C14.8884 29.4572 16.9331 30.0484 19.02 30.0454C26.0962 30.0454 29.9644 24.2742 29.9644 19.2679L29.9513 18.7767C30.7056 18.2466 31.3574 17.584 31.875 16.8211Z" fill="white"/>
<path d="M11.25 7.54541C10.2554 7.54541 9.30161 7.9405 8.59835 8.64376C7.89509 9.34702 7.5 10.3008 7.5 11.2954V33.7954C7.5 34.79 7.89509 35.7438 8.59835 36.4471C9.30161 37.1503 10.2554 37.5454 11.25 37.5454H33.75C34.7446 37.5454 35.6984 37.1503 36.4016 36.4471C37.1049 35.7438 37.5 34.79 37.5 33.7954V11.2954C37.5 10.3008 37.1049 9.34702 36.4016 8.64376C35.6984 7.9405 34.7446 7.54541 33.75 7.54541H11.25ZM11.25 3.79541H33.75C35.7391 3.79541 37.6468 4.58559 39.0533 5.99211C40.4598 7.39863 41.25 9.30629 41.25 11.2954V33.7954C41.25 35.7845 40.4598 37.6922 39.0533 39.0987C37.6468 40.5052 35.7391 41.2954 33.75 41.2954H11.25C9.26088 41.2954 7.35322 40.5052 5.9467 39.0987C4.54018 37.6922 3.75 35.7845 3.75 33.7954V11.2954C3.75 9.30629 4.54018 7.39863 5.9467 5.99211C7.35322 4.58559 9.26088 3.79541 11.25 3.79541Z" fill="white"/>
</svg>
