<svg width="52" height="52" viewBox="0 0 52 52" fill="none" xmlns="http://www.w3.org/2000/svg">
<circle cx="25.9999" cy="26.1877" r="25.104" stroke="white" stroke-width="0.507152"/>
<path d="M33.8058 29.6192C33.7381 29.687 33.6577 29.7407 33.5692 29.7774C33.4807 29.8141 33.3858 29.833 33.29 29.833C33.1942 29.833 33.0994 29.8141 33.0109 29.7774C32.9223 29.7407 32.8419 29.687 32.7742 29.6192L25.9997 22.8438L19.2252 29.6192C19.0884 29.756 18.9029 29.8328 18.7094 29.8328C18.516 29.8328 18.3304 29.756 18.1936 29.6192C18.0568 29.4824 17.98 29.2969 17.98 29.1034C17.98 28.9099 18.0568 28.7244 18.1936 28.5876L25.4839 21.2973C25.5516 21.2295 25.632 21.1758 25.7205 21.1391C25.809 21.1024 25.9039 21.0835 25.9997 21.0835C26.0955 21.0835 26.1904 21.1024 26.2789 21.1391C26.3674 21.1758 26.4478 21.2295 26.5155 21.2973L33.8058 28.5876C33.8736 28.6553 33.9274 28.7357 33.9641 28.8242C34.0007 28.9127 34.0196 29.0076 34.0196 29.1034C34.0196 29.1992 34.0007 29.2941 33.9641 29.3826C33.9274 29.4711 33.8736 29.5515 33.8058 29.6192Z" fill="white"/>
</svg>
