<svg width="123" height="123" viewBox="0 0 123 123" fill="none" xmlns="http://www.w3.org/2000/svg">
<path d="M110.868 34.0652C109.258 30.3372 106.937 26.959 104.033 24.1195C101.128 21.2716 97.7029 19.0084 93.9436 17.453C90.0456 15.8338 85.8647 15.0049 81.6437 15.0146C75.7219 15.0146 69.9442 16.6362 64.9233 19.6992C63.7222 20.4319 62.5811 21.2367 61.5 22.1136C60.4189 21.2367 59.2778 20.4319 58.0767 19.6992C53.0558 16.6362 47.2781 15.0146 41.3563 15.0146C37.0922 15.0146 32.9602 15.8314 29.0563 17.453C25.2847 19.0145 21.8854 21.2607 18.9665 24.1195C16.0596 26.9558 13.7375 30.3348 12.1318 34.0652C10.4622 37.945 9.60938 42.065 9.60938 46.3052C9.60938 50.3051 10.4262 54.4731 12.0478 58.7133C13.4051 62.2567 15.351 65.9323 17.8374 69.6439C21.7772 75.5177 27.1945 81.6437 33.9211 87.8537C45.068 98.1478 56.1067 105.259 56.5752 105.547L59.422 107.373C60.6832 108.178 62.3048 108.178 63.566 107.373L66.4128 105.547C66.8813 105.247 77.908 98.1478 89.0669 87.8537C95.7935 81.6437 101.211 75.5177 105.151 69.6439C107.637 65.9323 109.595 62.2567 110.94 58.7133C112.562 54.4731 113.379 50.3051 113.379 46.3052C113.391 42.065 112.538 37.945 110.868 34.0652ZM61.5 97.8715C61.5 97.8715 18.7383 70.4728 18.7383 46.3052C18.7383 34.0652 28.8642 24.1435 41.3563 24.1435C50.1369 24.1435 57.7523 29.0443 61.5 36.2033C65.2477 29.0443 72.8631 24.1435 81.6437 24.1435C94.1358 24.1435 104.262 34.0652 104.262 46.3052C104.262 70.4728 61.5 97.8715 61.5 97.8715Z" fill="black"/>
<path d="M81.6437 24.1436C72.8631 24.1436 65.2477 29.0443 61.5 36.2033C57.7523 29.0443 50.1369 24.1436 41.3563 24.1436C28.8642 24.1436 18.7383 34.0652 18.7383 46.3052C18.7383 70.4728 61.5 97.8715 61.5 97.8715C61.5 97.8715 104.262 70.4728 104.262 46.3052C104.262 34.0652 94.1358 24.1436 81.6437 24.1436Z" fill="black" fill-opacity="0.15"/>
</svg>
